<svg height="512" viewBox="0 0 510.272 510.272" width="512" xmlns="http://www.w3.org/2000/svg"><path d="M502.772 312.419a7.5 7.5 0 00-7.5 7.5v34.397h-77.243c-15.423 0-27.971 12.548-27.971 27.972v77.842H38.188C25.402 460.13 15 449.728 15 436.942V210.696c0-4.142-3.357-7.5-7.5-7.5s-7.5 3.358-7.5 7.5v226.246c0 21.057 17.131 38.188 38.188 38.188h433.896c21.058 0 38.188-17.131 38.188-38.188V319.919a7.5 7.5 0 00-7.5-7.5zm-97.713 69.868c0-7.153 5.818-12.972 12.971-12.972h66.637l-79.607 79.607v-66.635zm67.025 77.843h-57.019l80.207-80.207v57.019c0 12.786-10.402 23.188-23.188 23.188zm4.175-396.587V58.1c0-12.316-9.43-22.389-21.468-22.932-6.213-.289-12.095 1.926-16.578 6.211a22.608 22.608 0 00-6.954 16.266v5.666h-21.207v-5.242c0-11.754-8.604-21.551-20.015-22.789-6.375-.693-12.761 1.354-17.51 5.616a22.535 22.535 0 00-7.476 16.749v5.666h-21.208v-5.242c0-11.754-8.604-21.551-20.015-22.789-6.376-.693-12.76 1.354-17.51 5.616a22.537 22.537 0 00-7.476 16.749v5.666h-21.208v-5.666c0-6.38-2.725-12.485-7.476-16.749-4.749-4.261-11.135-6.311-17.51-5.616-11.41 1.237-20.015 11.034-20.015 22.789v5.242h-21.208v-5.666c0-6.38-2.725-12.485-7.476-16.749-4.749-4.261-11.135-6.311-17.51-5.616-11.41 1.237-20.015 11.034-20.015 22.789v5.242H145.22v-5.666a22.535 22.535 0 00-7.476-16.749c-4.748-4.261-11.135-6.311-17.51-5.616-11.41 1.237-20.015 11.034-20.015 22.789v5.242H79.013v-5.666c0-6.38-2.725-12.485-7.476-16.749a22.586 22.586 0 00-17.511-5.616c-11.41 1.237-20.014 11.034-20.014 22.789v5.474C14.914 65.629 0 81.852 0 101.498v77.236c0 4.142 3.357 7.5 7.5 7.5s7.5-3.358 7.5-7.5v-28.59h410.725c4.143 0 7.5-3.358 7.5-7.5s-3.357-7.5-7.5-7.5H15v-33.646c0-11.36 8.214-20.831 19.013-22.804v9.473c0 11.754 8.604 21.551 20.014 22.789a22.54 22.54 0 002.444.132c5.541 0 10.926-2.032 15.066-5.749a22.535 22.535 0 007.476-16.749V78.31h21.207v9.857c0 11.754 8.604 21.551 20.015 22.789.816.089 1.631.132 2.444.132a22.57 22.57 0 0015.065-5.748 22.535 22.535 0 007.476-16.749V78.31h21.208v9.857c0 11.754 8.604 21.551 20.015 22.789.816.089 1.631.132 2.444.132 5.54 0 10.924-2.032 15.065-5.748a22.537 22.537 0 007.476-16.749V78.31h21.208v9.857c0 11.754 8.604 21.551 20.015 22.789.816.089 1.631.132 2.444.132 5.54 0 10.924-2.032 15.065-5.748a22.537 22.537 0 007.476-16.749V78.31h21.208v10.281c0 6.38 2.725 12.485 7.476 16.749a22.571 22.571 0 0015.065 5.748c.813 0 1.629-.043 2.444-.132 11.41-1.237 20.015-11.034 20.015-22.789V78.31h21.208v10.281a22.535 22.535 0 007.476 16.749 22.57 22.57 0 0015.065 5.748c.813 0 1.629-.043 2.444-.132 11.41-1.237 20.015-11.034 20.015-22.789V78.31h21.207v10.281c0 6.38 2.725 12.485 7.476 16.749a22.575 22.575 0 0017.51 5.617c11.41-1.237 20.014-11.034 20.014-22.789v-9.473c10.799 1.973 19.014 11.444 19.014 22.804v33.646h-37.586c-4.143 0-7.5 3.358-7.5 7.5s3.357 7.5 7.5 7.5h37.586v137.813c0 4.142 3.357 7.5 7.5 7.5s7.5-3.358 7.5-7.5v-186.46c-.001-19.646-14.914-35.869-34.014-37.955zM64.013 88.591a7.416 7.416 0 01-2.494 5.585c-1.605 1.441-3.688 2.104-5.875 1.868-3.718-.403-6.631-3.863-6.631-7.876v-30.1c0-4.013 2.913-7.473 6.631-7.876 2.181-.234 4.269.426 5.875 1.868a7.416 7.416 0 012.494 5.585zm66.207 0a7.416 7.416 0 01-2.494 5.585c-1.606 1.44-3.69 2.102-5.874 1.867-3.719-.403-6.632-3.863-6.632-7.876V58.068c0-4.013 2.913-7.473 6.632-7.876 2.18-.234 4.268.426 5.874 1.867a7.416 7.416 0 012.494 5.585zm66.208 0a7.416 7.416 0 01-2.494 5.585c-1.606 1.442-3.694 2.104-5.874 1.868-3.719-.403-6.632-3.863-6.632-7.876v-30.1c0-4.013 2.913-7.473 6.632-7.876.29-.031.577-.047.863-.047 1.864 0 3.618.665 5.011 1.915a7.416 7.416 0 012.494 5.585zm66.208 0a7.416 7.416 0 01-2.494 5.585c-1.606 1.442-3.691 2.104-5.874 1.868-3.719-.403-6.632-3.863-6.632-7.876v-30.1c0-4.013 2.913-7.473 6.632-7.876.29-.031.577-.047.863-.047 1.864 0 3.618.665 5.011 1.915a7.416 7.416 0 012.494 5.585zm66.208-.424c0 4.013-2.913 7.473-6.632 7.876-2.18.236-4.268-.427-5.874-1.868a7.416 7.416 0 01-2.494-5.585V57.644c0-2.158.886-4.142 2.494-5.585a7.43 7.43 0 015.011-1.915c.286 0 .573.016.863.047 3.719.403 6.632 3.863 6.632 7.876zm66.208 0c0 4.013-2.913 7.473-6.632 7.876-2.181.236-4.268-.426-5.874-1.867a7.416 7.416 0 01-2.494-5.585V57.644c0-2.158.886-4.142 2.494-5.585 1.605-1.441 3.685-2.104 5.874-1.867 3.719.403 6.632 3.863 6.632 7.876zm66.207 0c0 4.013-2.913 7.473-6.631 7.876-2.182.236-4.269-.427-5.875-1.868a7.416 7.416 0 01-2.494-5.585V57.644c0-2.067.823-3.993 2.319-5.423a7.442 7.442 0 015.538-2.069c3.938.178 7.144 3.743 7.144 7.948v30.067z"/><path d="M59.126 241.451H95.49c7.63 0 13.837-6.208 13.837-13.838V191.25c0-7.63-6.207-13.838-13.837-13.838H59.126c-7.63 0-13.837 6.208-13.837 13.838v36.363c0 7.63 6.207 13.838 13.837 13.838zm1.163-49.04h34.038v34.039H60.289zm117.457 49.04h36.363c7.63 0 13.838-6.208 13.838-13.838V191.25c0-7.63-6.208-13.838-13.838-13.838h-36.363c-7.63 0-13.838 6.208-13.838 13.838v36.363c0 7.63 6.208 13.838 13.838 13.838zm1.162-49.04h34.039v34.039h-34.039zm117.458 49.04h36.363c7.63 0 13.838-6.208 13.838-13.838V191.25c0-7.63-6.208-13.838-13.838-13.838h-36.363c-7.63 0-13.838 6.208-13.838 13.838v36.363c0 7.63 6.208 13.838 13.838 13.838zm1.162-49.04h34.039v34.039h-34.039zm117.458 49.04h36.363c7.63 0 13.838-6.208 13.838-13.838V191.25c0-7.63-6.208-13.838-13.838-13.838h-36.363c-7.63 0-13.838 6.208-13.838 13.838v36.363c0 7.63 6.208 13.838 13.838 13.838zm1.162-49.04h34.039v34.039h-34.039zM45.289 320.795c0 7.63 6.207 13.837 13.837 13.837H95.49c7.63 0 13.837-6.208 13.837-13.837v-36.364c0-7.63-6.207-13.837-13.837-13.837H59.126c-7.63 0-13.837 6.208-13.837 13.837zm15-35.201h34.038v34.039H60.289zm103.619 35.201c0 7.63 6.208 13.837 13.838 13.837h36.363c7.63 0 13.838-6.208 13.838-13.837v-36.364c0-7.63-6.208-13.837-13.838-13.837h-36.363c-7.63 0-13.838 6.208-13.838 13.837zm15-35.201h34.039v34.039h-34.039zm222.24 35.201c0 7.63 6.208 13.837 13.838 13.837h36.363c7.63 0 13.838-6.208 13.838-13.837v-36.364c0-7.63-6.208-13.837-13.838-13.837h-36.363c-7.63 0-13.838 6.208-13.838 13.837zm15-35.201h34.039v34.039h-34.039zM45.289 413.978c0 7.63 6.207 13.837 13.837 13.837H95.49c7.63 0 13.837-6.208 13.837-13.837v-36.364c0-7.63-6.207-13.837-13.837-13.837H59.126c-7.63 0-13.837 6.208-13.837 13.837zm15-35.201h34.038v34.039H60.289zm103.619 35.201c0 7.63 6.208 13.837 13.838 13.837h36.363c7.63 0 13.838-6.208 13.838-13.837v-36.364c0-7.63-6.208-13.837-13.838-13.837h-36.363c-7.63 0-13.838 6.208-13.838 13.837zm15-35.201h34.039v34.039h-34.039zm153.821-15h-36.363c-7.63 0-13.838 6.208-13.838 13.837v36.364c0 7.63 6.208 13.837 13.838 13.837h36.363c7.63 0 13.838-6.208 13.838-13.837v-36.364c0-7.63-6.208-13.837-13.838-13.837zm-1.162 49.038h-34.039v-34.039h34.039zm-58.381-119.139a13.29 13.29 0 004.841 14.897l9.046 6.573-3.455 10.634a13.29 13.29 0 004.84 14.898 13.304 13.304 0 007.833 2.553c2.744 0 5.49-.851 7.832-2.553l9.046-6.572 9.047 6.573a13.291 13.291 0 0015.664 0 13.292 13.292 0 004.841-14.898l-3.456-10.634 9.047-6.573c4.685-3.403 6.63-9.39 4.841-14.897s-6.882-9.208-12.673-9.208h-11.182l-3.456-10.635a13.29 13.29 0 00-12.671-9.207h-.002c-5.79 0-10.883 3.7-12.673 9.208l-3.455 10.634h-11.182a13.288 13.288 0 00-12.673 9.207zm25.071 5.792c5.79 0 10.882-3.7 12.673-9.208l2.238-6.89 2.238 6.889a13.291 13.291 0 0012.674 9.208h7.243l-5.86 4.258a13.294 13.294 0 00-4.841 14.898l2.238 6.889-5.859-4.257a13.288 13.288 0 00-15.665 0l-5.86 4.257 2.238-6.888a13.288 13.288 0 00-4.841-14.898l-5.86-4.258z"/></svg>