<svg height="512" width="512" xmlns="http://www.w3.org/2000/svg"><path d="M95.72 178.319c26.411 0 47.898-21.487 47.898-47.898S122.131 82.523 95.72 82.523s-47.897 21.487-47.897 47.898 21.485 47.898 47.897 47.898zm0-80.796c18.141 0 32.898 14.758 32.898 32.898s-14.758 32.898-32.898 32.898-32.897-14.758-32.897-32.898c-.001-18.14 14.757-32.898 32.897-32.898zm58.917 32.898c0 26.411 21.487 47.898 47.898 47.898s47.897-21.487 47.897-47.898-21.486-47.898-47.897-47.898-47.898 21.487-47.898 47.898zm80.795 0c0 18.14-14.758 32.898-32.897 32.898-18.141 0-32.898-14.758-32.898-32.898s14.758-32.898 32.898-32.898 32.897 14.758 32.897 32.898zm73.917 47.898c26.411 0 47.898-21.487 47.898-47.898s-21.487-47.898-47.898-47.898-47.898 21.487-47.898 47.898 21.487 47.898 47.898 47.898zm0-80.796c18.141 0 32.898 14.758 32.898 32.898s-14.758 32.898-32.898 32.898-32.898-14.758-32.898-32.898 14.758-32.898 32.898-32.898zm-43.611-46.392H55.322c-4.143 0-7.5 3.358-7.5 7.5s3.357 7.5 7.5 7.5h210.416c4.143 0 7.5-3.358 7.5-7.5s-3.357-7.5-7.5-7.5zM95.72 327.858c26.411 0 47.898-21.487 47.898-47.898s-21.487-47.898-47.898-47.898-47.897 21.487-47.897 47.898 21.485 47.898 47.897 47.898zm0-80.796c18.141 0 32.898 14.758 32.898 32.898s-14.758 32.898-32.898 32.898S62.823 298.1 62.823 279.96s14.757-32.898 32.897-32.898zm58.917 32.898c0 26.411 21.487 47.898 47.898 47.898s47.897-21.487 47.897-47.898-21.486-47.898-47.897-47.898-47.898 21.487-47.898 47.898zm80.795 0c0 18.14-14.758 32.898-32.897 32.898-18.141 0-32.898-14.758-32.898-32.898s14.758-32.898 32.898-32.898 32.897 14.758 32.897 32.898zm-180.11-64.29h210.416c4.143 0 7.5-3.358 7.5-7.5s-3.357-7.5-7.5-7.5H55.322a7.5 7.5 0 000 15zm40.398 267.1c26.411 0 47.898-21.487 47.898-47.898s-21.487-47.898-47.898-47.898-47.897 21.487-47.897 47.898S69.308 482.77 95.72 482.77zm0-80.796c18.141 0 32.898 14.758 32.898 32.898S113.86 467.77 95.72 467.77s-32.897-14.758-32.897-32.898 14.757-32.898 32.897-32.898zm58.917 32.898c0 26.411 21.487 47.898 47.898 47.898s47.897-21.487 47.897-47.898-21.486-47.898-47.897-47.898-47.898 21.487-47.898 47.898zm80.795 0c0 18.14-14.758 32.898-32.897 32.898-18.141 0-32.898-14.758-32.898-32.898s14.758-32.898 32.898-32.898 32.897 14.758 32.897 32.898zm73.917 47.898c26.411 0 47.898-21.487 47.898-47.898s-21.487-47.898-47.898-47.898-47.898 21.487-47.898 47.898 21.487 47.898 47.898 47.898zm0-80.796c18.141 0 32.898 14.758 32.898 32.898s-14.758 32.898-32.898 32.898-32.898-14.758-32.898-32.898 14.758-32.898 32.898-32.898zM55.322 370.582h210.416c4.143 0 7.5-3.358 7.5-7.5s-3.357-7.5-7.5-7.5H55.322a7.5 7.5 0 000 15z"/><path d="M483.829 92.191l4.659-11.685c4.17-10.459-.946-22.36-11.406-26.531l-20.323-8.104a20.28 20.28 0 00-15.632.21 20.288 20.288 0 00-10.899 11.195l-9.289 23.297a26.745 26.745 0 00-9.744 8.273 309.356 309.356 0 00-6.333 9.115V30.78c0-16.972-13.813-30.78-30.79-30.78H30.991C14.019 0 .212 13.808.212 30.78v374.464c0 4.142 3.357 7.5 7.5 7.5s7.5-3.358 7.5-7.5V30.78c0-8.701 7.078-15.78 15.779-15.78h343.08c8.707 0 15.79 7.079 15.79 15.78v91.488c-13.252 23.163-26.204 50.286-37.786 79.334a704.049 704.049 0 00-14.471 39.666c-8.106-5.937-17.922-9.208-28.253-9.208-26.412 0-47.9 21.488-47.9 47.9s21.488 47.9 47.9 47.9c2.582 0 5.13-.202 7.634-.602-4.358 35.705.523 56.638 14.54 62.229a18.896 18.896 0 007.057 1.345c13.45-.001 29.893-13.475 49.007-40.202a295.101 295.101 0 002.272-3.228V481.22c0 8.701-7.083 15.78-15.79 15.78H30.991c-8.701 0-15.779-7.079-15.779-15.78v-45.976c0-4.142-3.357-7.5-7.5-7.5s-7.5 3.358-7.5 7.5v45.976C.212 498.192 14.02 512 30.991 512h343.08c16.978 0 30.79-13.808 30.79-30.78V323.908c14.388-24.365 28.527-53.551 41.027-84.902 8.966-22.493 16.55-44.712 22.544-66.038a7.5 7.5 0 00-14.441-4.058c-5.851 20.821-13.266 42.536-22.036 64.542-6.995 17.544-14.5 34.368-22.26 49.988l-61.919-24.688c5.118-16.678 11.234-34.045 18.232-51.595 17.325-43.453 37.688-82.348 57.343-109.526 3.187-4.413 8.96-6.081 14.042-4.055l20.913 8.341c5.081 2.024 8.124 7.208 7.401 12.608-1.064 7.955-2.601 16.605-4.567 25.711a7.5 7.5 0 0014.662 3.167c2.051-9.494 3.656-18.541 4.772-26.888a26.798 26.798 0 00-.462-9.596c11.634 5.397 17.233 15.033 16.632 28.768-.852 19.371-19.019 54.82-35.047 86.096-19.627 38.297-31.502 62.44-28.479 75.68a7.502 7.502 0 008.982 5.642 7.5 7.5 0 005.642-8.981c-.354-1.548-.418-6.917 6.597-23.295 5.198-12.138 12.684-26.743 20.607-42.206 17.546-34.236 35.688-69.637 36.685-92.279.912-20.825-9.158-36.537-27.902-44.153zM276.451 279.96c0-18.141 14.759-32.9 32.9-32.9 8.864 0 17.185 3.498 23.348 9.708-5.852 19.361-10.358 37.793-13.306 54.528a32.71 32.71 0 01-10.042 1.564c-18.141 0-32.9-14.759-32.9-32.9zm126.366 16.886c-9.035 17.037-18.306 32.302-27.429 45.059-21.533 30.11-34.486 35.179-38.308 33.649-3.835-1.53-9.741-14.111-4.648-50.78 2.157-15.528 5.949-32.991 11.112-51.561zM442.95 79.644a26.95 26.95 0 00-4.925-1.424l6.135-15.388a5.382 5.382 0 012.894-2.971 5.387 5.387 0 014.149-.056l20.322 8.104a5.425 5.425 0 013.028 7.042l-6.136 15.39a26.991 26.991 0 00-4.558-2.356z"/></svg>