<svg xmlns="http://www.w3.org/2000/svg" viewBox="0 0 480.049 480.049"><path d="M464.022 16.051h16v16h-16zm-16-15.999h16v16h-16zm-16 15.999h16v16h-16zm16 16h16v16h-16zm-48-16h16v16h-16zm-16 160h16v16h-16zm32 0h16v16h-16zm-16-16h16v16h-16zm0 32h16v16h-16zm-311.99-40h16v16h-16zm-16-16h16v16h-16zm-16.01 16h16v16h-16zm16.01 16h16v16h-16zm-48.01-16h16v16h-16zm-23.995-104h16v16h-16zm31.995 0h16v16h-16zm-16-16h16v16h-16zm0 32h16v16h-16zM112.032.052h16v16h-16zm318.612 375.921a23.946 23.946 0 00-22.618-15.922h-19.352l-28.648-50.128v-85.872c0-17.673-14.327-32-32-32v-104c1.623-46.978-35.144-86.377-82.122-88a84.709 84.709 0 00-5.878 0c-55.008 0-86.4 45.184-88 87.696 0 .104.056.2.056.304h-.056v104c-17.673 0-32 14.327-32 32v85.872l-28.648 50.128H72.027c-13.224-.027-23.966 10.67-23.994 23.894a23.945 23.945 0 0015.922 22.61c-11.555 13.061-10.334 33.017 2.728 44.572a31.573 31.573 0 0016.832 7.66l155.432 21.192c.72.094 1.448.094 2.168 0l155.432-21.192c17.292-2.259 29.479-18.108 27.22-35.4a31.573 31.573 0 00-7.66-16.832c12.459-4.43 18.968-18.122 14.537-30.582zM240.027 16.052c38-1.764 70.236 27.611 72 65.612.099 2.128.099 4.26 0 6.388h-16c-22.08-.026-39.974-17.92-40-40a8 8 0 00-13.656-5.656 129.075 129.075 0 01-73.448 36.72c4.399-35.948 34.887-62.989 71.104-63.064zm-16 184v-34.216a62.287 62.287 0 0016 2.216 61.387 61.387 0 0016-2.264v34.264a8 8 0 008 8h16v10.232l-40 13.336-40-13.336v-10.232h16a8 8 0 008-8zM177.563 93.804a144.8 144.8 0 0064.8-29.864c7.065 23.756 28.88 40.062 53.664 40.112h3.488c-10 26.84-35.36 48-59.488 48-27.784 0-55.848-26.928-62.464-58.248zm94.464 98.248v-32.68a94.928 94.928 0 0040-43.752v76.432h-40zm-104-76.408a94.167 94.167 0 0040 43.776v32.632h-40v-76.408zm16 92.408v16a8 8 0 005.472 7.584v.008l48 16a7.95 7.95 0 005.064 0l48-16a8 8 0 005.464-7.592v-16h21.752l-36 144h-83.504l-36-144h21.752zm11.68 160h88.64l32.144 37.496-76.464 10.432-76.464-10.4 32.144-37.528zm-50.976 34.928l-14.76-2.008 50.12-55.696 3.2 12.712-38.56 44.992zm152.096-44.992l3.2-12.712 50.12 55.696-14.792 2.008-38.528-44.992zm-232.8 26.064a8 8 0 018-8h24a8 8 0 006.944-4l32-56a7.995 7.995 0 001.056-4v-88a16 16 0 0110.04-14.848l14.672 58.68 14.664 58.68-58.936 65.488h-44.44a8 8 0 01-8-8zm176 79.928L85.675 442.924c-8.638-1.141-14.715-9.068-13.574-17.706a15.776 15.776 0 0115.71-13.71c.712 0 1.423.051 2.128.152l56.888 7.76 90.4 12.328 42.824 26.768-40.024 5.464zm154.352-21.056l-89.552 12.216-41.832-26.144 70.176-9.6 56.88-7.76c8.633-1.211 16.612 4.806 17.823 13.439.103.734.154 1.475.153 2.217a15.841 15.841 0 01-13.648 15.632zm13.648-50.872h-44.44l-58.944-65.496 14.664-58.68 14.672-58.68a16 16 0 0110.048 14.856v88a7.995 7.995 0 001.056 4l32 56a8 8 0 006.944 4h24a8 8 0 010 16z"/></svg>